<svg width="22" height="42" viewBox="0 0 22 42" xmlns="http://www.w3.org/2000/svg">
  <path fill="#fff" fill-rule="evenodd"
        d="M15.806.001c-.546 0-1.087.066-1.626.147C13.531.25 12.9.4 12.284.624c-2.037.738-3.591 2.033-4.605 3.944-.48.906-.785 1.87-.969 2.876-.096.539-.165 1.082-.183 1.63-.01.285-.016.572-.016.858v5.306c0 .135.033.142-.14.142H.136c-.046 0-.09 0-.135.003v7.447c.032-.003.066-.003.1-.003H6.38c.132 0 .132 0 .132.13V41.84c0 .03.002.062 0 .094-.007.052.02.068.068.066h7.56c.128 0 .128 0 .128-.13V22.999c0-.195-.023-.171.17-.171h6.202c.123 0 .12 0 .133-.123l.13-.99.124-.963c.049-.374.1-.75.148-1.123.04-.322.082-.643.125-.965l.144-1.121c.044-.322.085-.645.127-.965.048-.37.093-.744.147-1.113.008-.067-.007-.088-.072-.084-.03.003-.058 0-.085 0h-7.142c-.178 0-.151 0-.151-.15 0-1.602-.004-3.208 0-4.811.003-.581.062-1.155.267-1.705.255-.699.74-1.172 1.431-1.444.43-.168.873-.256 1.333-.284.306-.018.614-.032.92-.032 1.224-.006 2.447-.003 3.67-.003.036 0 .073.004.11.004V.281l-.504-.049c-.224-.02-.45-.044-.674-.06-.397-.03-.793-.059-1.19-.082-.22-.016-.44-.03-.66-.035C17.945.034 16.918.013 15.889 0h-.082z"></path>
</svg>
