<svg width="42" height="42" viewBox="0 0 42 42" xmlns="http://www.w3.org/2000/svg">
  <path fill="#fff" fill-rule="evenodd"
        d="M15.926.001c-.163.007-.326.017-.486.021-1.237.045-2.476.068-3.714.138-1.792.1-3.537.443-5.172 1.22-2.652 1.256-4.49 3.276-5.526 6.036C.634 8.47.394 9.56.26 10.675c-.13 1.058-.163 2.122-.195 3.184-.023.691-.03 1.379-.047 2.07 0 .028-.011.056-.018.081v9.98l.024.5c.043 1.247.067 2.496.136 3.744.09 1.609.387 3.177.996 4.676.96 2.375 2.569 4.171 4.798 5.409 1.146.637 2.383 1.026 3.67 1.264 1.034.194 2.077.278 3.128.31 1.103.033 2.207.06 3.31.089.028 0 .053.012.08.017h9.49c.033-.005.063-.017.093-.017 1.442-.046 2.883-.07 4.322-.144 1.73-.089 3.414-.42 5.002-1.144 2.641-1.194 4.506-3.149 5.595-5.847.456-1.138.746-2.326.867-3.546.086-.875.14-1.755.177-2.633.042-.945.049-1.892.07-2.838.002-.028.013-.056.018-.083v-9.494c-.005-.035-.016-.07-.019-.105-.047-1.45-.068-2.905-.144-4.357-.084-1.662-.39-3.283-1.045-4.822-1.197-2.814-3.22-4.777-6.057-5.892-1.026-.4-2.094-.649-3.183-.796C30.416.16 29.5.116 28.58.085c-.883-.028-1.765-.044-2.648-.067-.027 0-.055-.012-.08-.017h-9.927zm13.601 9.785c0-1.39 1.131-2.527 2.51-2.523 1.388.006 2.506 1.133 2.506 2.529 0 1.397-1.117 2.52-2.506 2.52h-.014c-1.384-.007-2.496-1.133-2.496-2.526zM10.162 20.779c.113-5.847 4.886-10.584 10.733-10.563 5.89-.017 10.767 4.831 10.718 10.878-.046 5.89-4.815 10.692-10.734 10.692h-.095c-5.924-.054-10.74-4.97-10.622-11.007zm3.767.218c0 3.849 3.11 6.992 6.915 7.002 3.863.01 6.982-3.108 7.003-6.961.018-3.888-3.09-6.976-6.847-7.035-.035-.002-.073-.002-.11-.002-3.864 0-6.968 3.163-6.961 6.996z"></path>
</svg>
