<svg class="mx-3 mx-md-6" width="42" height="34" viewBox="0 0 42 34">
  <path fill="#A1ADBE" fill-rule="evenodd"
        d="M28.507 0c-.265.033-.532.058-.797.1-1.914.277-3.55 1.111-4.907 2.485-1.29 1.31-2.077 2.883-2.36 4.698-.164 1.057-.128 2.11.1 3.156.007.027.009.053.021.117-7.19-.492-13.075-3.488-17.736-8.965-1.1 1.96-1.43 4.033-.931 6.22.5 2.186 1.718 3.9 3.549 5.188l-.01.05c-.436-.058-.877-.094-1.306-.181-.43-.088-.856-.206-1.273-.35-.417-.15-.818-.345-1.25-.529 0 2.033.62 3.86 1.903 5.45 1.283 1.59 2.941 2.584 4.933 3.037-1.254.345-2.517.383-3.821.146.584 1.753 1.593 3.167 3.052 4.256 1.458 1.088 3.108 1.64 4.974 1.707-1.826 1.414-3.809 2.421-5.99 3.028-2.178.609-4.394.779-6.645.53l-.013.04c.221.135.432.27.653.397 2.502 1.476 5.183 2.482 8.04 3.006 1.226.227 2.463.36 3.711.389.128 0 .254.015.382.025h.536c.092-.007.188-.021.282-.024 3.032-.047 5.97-.58 8.793-1.694 3.152-1.246 5.895-3.099 8.226-5.55 3.264-3.436 5.364-7.487 6.395-12.094.438-1.972.615-3.97.536-5.988-.005-.13.033-.208.142-.289 1.558-1.147 2.888-2.519 3.99-4.108.035-.05.065-.102.091-.173-1.544.645-3.141 1.087-4.81 1.278 1.78-1.133 3.025-2.68 3.714-4.713-.08.042-.128.065-.174.092-1.611.928-3.33 1.576-5.153 1.948-.065.014-.168-.015-.214-.061-1.286-1.3-2.818-2.134-4.618-2.471-.323-.06-.653-.082-.98-.123-.068-.009-.133-.022-.197-.03h-.838z"></path>
</svg>
