<svg class="mx-3 mx-md-6" width="53" height="38" viewBox="0 0 53 38" xmlns="http://www.w3.org/2000/svg">
  <path fill="#fff" fill-rule="evenodd"
        d="M18.63.134C14.813.248 10.997.54 7.19.862c-1.04.088-2.202.336-3.037.92C2.326 3.06 1.166 4.937.94 7.257.561 11.13.267 15.015 0 18.169c.176 3.1.254 5.455.458 7.803.167 1.936.357 3.885.753 5.78.57 2.736 2.277 4.51 4.932 5.14 3.164.751 6.404.755 9.628.873 2.734.1 5.465.228 8.199.234 3.761.006 7.524-.091 11.286-.142.3 0 .601 0 .902.003.535.004 1.072.01 1.607-.024 2.263-.136 4.526-.329 6.793-.464 3.651-.22 6.538-2.272 7.288-6.174.718-3.746.762-7.538.894-11.323.074-2.133-.044-4.28-.149-6.418-.12-2.468-.294-4.942-.93-7.339-.486-1.825-1.315-3.427-3.078-4.333C47.407 1.182 46.199.753 44.89.68 40.795.453 36.7.133 32.602.052c-1.707-.034-3.415-.05-5.126-.05-2.948 0-5.9.047-8.846.132zm2.613 25.691c-.018-1.932-.014-3.857-.014-5.784 0-2.686 0-5.372.01-8.053.001-.268.058-.535.11-.983 1.098.656 2.066 1.231 3.03 1.812 1.42.855 2.829 1.723 4.25 2.568 1.803 1.07 3.62 2.117 5.42 3.187.538.32.54.777-.01 1.1-2.216 1.296-4.45 2.563-6.667 3.866-1.135.668-2.24 1.385-3.359 2.08-.562.35-1.108.726-1.687 1.039-.126.07-.251.103-.372.103-.396 0-.707-.368-.711-.935z"></path>
</svg>
