<svg width="212" height="55" viewBox="0 0 212 55" xmlns="http://www.w3.org/2000/svg">
  <g fill="none" fill-rule="evenodd">
    <path fill="#FFF"
          d="M130.9 51.95c0 .97-.77 1.49-1.73 1.49s-1.76-.52-1.76-1.5v-6.36h-2.12v6.38c0 1.63 1.54 2.76 3.78 2.76 2.26 0 3.8-1.13 3.8-2.76v-6.38h-1.97v6.37zm-11.92 1.53c-1.81 0-2.16-1.78-2.16-3.45 0-1.7.4-3.49 2.16-3.49 1.78 0 2.16 1.8 2.16 3.48s-.34 3.46-2.16 3.46zm0-8.04c-3.08 0-4.32 2.09-4.32 4.63 0 2.57 1.24 4.64 4.32 4.64 3.09 0 4.3-2.07 4.3-4.64 0-2.54-1.21-4.63-4.3-4.63zm-11.2 4.64v-3.53c.26-.09.61-.15 1.06-.15 1.55 0 2.17.6 2.17 1.86 0 1.2-.8 1.9-2.44 1.9a3.8 3.8 0 01-.78-.07zm2.22.48c1.83-.09 3.08-1.02 3.08-2.38 0-1.7-1.39-2.74-4.24-2.74-1.32 0-2.42.23-3.13.51v8.62h2.08V50.5h.03l3.26 4.08h2.35L110 50.58v-.02zm24.57-3.87h2.14v7.88h2.1V46.7h2.16v-1.11h-6.4v1.1zm18.97 2.66c-1-.32-1.74-.69-1.74-1.47 0-.8.6-1.31 1.65-1.31.73 0 1.37.2 1.77.4l.47-1.02a5.37 5.37 0 00-2.52-.5c-2.12 0-3.44 1.2-3.44 2.64 0 .87.5 1.84 2.37 2.45 1.28.42 1.79.84 1.79 1.52 0 .84-.7 1.39-1.84 1.39-.87 0-1.52-.21-1.92-.42l-.52 1.17c.62.3 1.48.5 2.84.5 2.13 0 3.67-1.14 3.67-2.74 0-.87-.33-1.86-2.58-2.6zm-54.17 4.13c-1.82 0-2.17-1.78-2.17-3.45 0-1.7.4-3.49 2.17-3.49 1.76 0 2.15 1.8 2.15 3.48s-.33 3.46-2.15 3.46zm0-8.04c-3.09 0-4.32 2.09-4.32 4.63 0 2.57 1.23 4.64 4.32 4.64 3.08 0 4.3-2.07 4.3-4.64 0-2.54-1.22-4.63-4.3-4.63zm43.29 9.13h5.58v-1.1h-3.46V50.5h3.08v-1.1h-3.08V46.7h3.46v-1.11h-5.58v9zm-58.5-2.62c0 .97-.77 1.49-1.74 1.49-.96 0-1.76-.52-1.76-1.5v-6.36h-2.11v6.38c0 1.63 1.53 2.76 3.79 2.76 2.25 0 3.78-1.13 3.78-2.76v-6.38h-1.97v6.37zm-13.27-.66l1.23-3.17c.27-.67.32-1.08.32-1.08h.03s.05.42.3 1.09l1.2 3.16h-3.08zm.65-5.71l-3.8 9h1.9l.91-2.32h3.71l.88 2.31h2.18l-3.78-9h-2zm16.28 1.1h2.14v7.9h2.12v-7.9h2.15v-1.1h-6.4v1.1zm45.47-8.1h7V19.05h-7v19.52zm-93.8 0h7V19.05h-7v19.52zM17.4 30.42c-1.57-1.46-12.2-11.7-12.2-11.7L0 23.46 17.41 39.1l17.4-15.63-5.2-4.75s-10.63 10.24-12.2 11.7zm61.7 8.15h6.82V19.05h-6.8v12.14s-5.08-3.75-12.53-7.61a50.57 50.57 0 00-12.26-4.5v19.5h6.79V28.15c1.63.66 3.38 1.38 5.46 2.46a81.82 81.82 0 0112.52 7.95zm46.58-1.15V31.6s-6.78 1.33-16.08 1.33c-4.52 0-7.5-.52-9.1-.69v-6.78c1.8-.17 4.82-.7 9.16-.7a96.22 96.22 0 0116.02 1.38v-5.87s-6.2-1.54-16.01-1.54c-9.87 0-16.01 1.55-16.01 1.55v17.14s6.24 1.54 16 1.54c9.71 0 16.02-1.54 16.02-1.54z"></path>
    <path fill="#FFF"
          d="M208.81 21.04a9.19 9.19 0 00-6.58-2.7 9.5 9.5 0 00-9.5 9.44c0 .93.4 2.72.4 3.47a7.32 7.32 0 01-7.32 7.33h-7.84a2.72 2.72 0 00-2.73 2.72v10.58c0 1.5 1.22 2.72 2.73 2.72h10.57c1.5 0 2.73-1.21 2.73-2.72v-7.84a7.32 7.32 0 017.33-7.32c.75 0 2.53.4 3.46.4a9.5 9.5 0 009.45-9.5c0-2.58-1.05-4.9-2.7-6.58zm-20.26-5.02c1.5 0 2.72-1.21 2.72-2.71V2.72c0-1.5-1.22-2.72-2.72-2.72h-10.58a2.72 2.72 0 00-2.72 2.72v8.12c0 2.51-1.92 4.67-2.75 5.54a9.17 9.17 0 01-6.62 2.68h-9.76v16.1h16.09v-9.77a9.2 9.2 0 012.68-6.62c.86-.83 3.02-2.75 5.54-2.75h8.12z"></path>
  </g>
</svg>
